<?xml version="1.0" encoding="UTF-8"?>
<svg width="23px" height="22px" viewBox="0 0 23 22" version="1.1" xmlns="http://www.w3.org/2000/svg" xmlns:xlink="http://www.w3.org/1999/xlink">
    <!-- Generator: sketchtool 53.1 (72631) - https://sketchapp.com -->
    <title>513FB922-0109-46AA-8C20-CBD9132B2441</title>
    <desc>Created with sketchtool.</desc>
    <g id="Desktop" stroke="none" stroke-width="1" fill="none" fill-rule="evenodd">
        <g id="desktop_zewnetrzny_plik_wiele_produktow" transform="translate(-489.000000, -540.000000)" fill="#FFFFFF" fill-rule="nonzero" stroke="#FFFFFF" stroke-width="0.5">
            <g id="file_download-copy-2" transform="translate(296.000000, 523.000000)">
                <g id="code">
                    <g id="copy">
                        <g id="download_box" transform="translate(194.000000, 17.000000)">
                            <g id="download" transform="translate(0.000000, 1.000000)">
                                <path d="M20.9566795,9.69836034 C20.6132775,9.69836034 20.3385559,9.9745437 20.3385559,10.3197729 L20.3385559,15.9723259 C20.3385559,17.5097466 19.0931513,18.7571748 17.5684465,18.7571748 L4.0063567,18.7571748 C2.47707311,18.7571748 1.23624721,17.5051436 1.23624721,15.9723259 L1.23624721,10.2277118 C1.23624721,9.88248258 0.961525607,9.60629921 0.618123605,9.60629921 C0.274721602,9.60629921 0,9.88248258 0,10.2277118 L0,15.9723259 C0,18.195602 1.79942649,20 4.0063567,20 L17.5684465,20 C19.7799553,20 21.5748031,18.1909989 21.5748031,15.9723259 L21.5748031,10.3197729 C21.5748031,9.97914676 21.3000815,9.69836034 20.9566795,9.69836034 Z" id="Path"></path>
                                <path d="M10.2741537,15.0923751 C10.3937008,15.2114651 10.5546296,15.2755906 10.7109604,15.2755906 C10.8672912,15.2755906 11.02822,15.2160455 11.1477671,15.0923751 L15.0928214,11.1624031 C15.3365136,10.9196425 15.3365136,10.5303096 15.0928214,10.2875491 C14.8491293,10.0447886 14.4583022,10.0447886 14.21461,10.2875491 L11.3316857,13.1640322 L11.3316857,0.618352241 C11.3316857,0.274823218 11.0558078,0 10.7109604,0 C10.366113,0 10.0902351,0.274823218 10.0902351,0.618352241 L10.0902351,13.1640322 L7.2027128,10.2875491 C6.95902063,10.0447886 6.56819357,10.0447886 6.32450141,10.2875491 C6.08080924,10.5303096 6.08080924,10.9196425 6.32450141,11.1624031 L10.2741537,15.0923751 Z" id="Path"></path>
                            </g>
                        </g>
                    </g>
                </g>
            </g>
        </g>
    </g>
</svg>