<?xml version="1.0" encoding="UTF-8"?>
<svg width="17px" height="17px" viewBox="0 0 17 17" version="1.1" xmlns="http://www.w3.org/2000/svg" xmlns:xlink="http://www.w3.org/1999/xlink">
    <!-- Generator: sketchtool 53.1 (72631) - https://sketchapp.com -->
    <title>A7BB89ED-3941-47DC-8A29-E26A2A6097C5</title>
    <desc>Created with sketchtool.</desc>
    <g id="Desktop" stroke="none" stroke-width="1" fill="none" fill-rule="evenodd">
        <g id="desktop_zewnetrzny_kod" transform="translate(-942.000000, -426.000000)" fill="#636363" fill-rule="nonzero" stroke="#636363" stroke-width="0.5">
            <g id="contact" transform="translate(932.000000, 413.000000)">
                <g id="copy">
                    <g id="Group" transform="translate(11.155556, 11.000000)">
                        <g id="contact" transform="translate(0.000000, 3.000000)">
                            <path d="M14.8715898,0.12542447 C14.7468664,0.000616284833 14.5549843,-0.0345860239 14.3950825,0.0358185935 L0.259765715,6.23462513 C0.109458047,6.30182954 0.0103189476,6.44583899 0.000724841116,6.60904969 C-0.00886926533,6.77226039 0.0774776927,6.92587047 0.218191254,7.00587572 L5.14636393,9.80285915 L8.0725664,14.7855859 C8.14931925,14.9167945 8.29323085,15 8.44353851,15 C8.45313262,15 8.45952869,15 8.4691228,15 C8.63222261,14.9903994 8.77293617,14.8911929 8.84009491,14.740783 L14.9643329,0.602255743 C15.0346896,0.439045039 14.9995113,0.250232656 14.8715898,0.12542447 Z M12.6233709,1.7543313 L5.38941463,8.9452029 L1.39506831,6.67945431 L12.6233709,1.7543313 Z M8.38597387,13.6143091 L6.00343744,9.55324278 L13.2789682,2.32076845 L8.38597387,13.6143091 Z" id="Shape"></path>
                        </g>
                    </g>
                </g>
            </g>
        </g>
    </g>
</svg>