<?xml version="1.0" encoding="UTF-8"?>
<svg width="30px" height="30px" viewBox="0 0 30 30" version="1.1" xmlns="http://www.w3.org/2000/svg" xmlns:xlink="http://www.w3.org/1999/xlink">
    <!-- Generator: sketchtool 53.1 (72631) - https://sketchapp.com -->
    <title>B0A1B2D4-9B18-4731-A0CC-BBB5459CE34E</title>
    <desc>Created with sketchtool.</desc>
    <g id="Desktop" stroke="none" stroke-width="1" fill="none" fill-rule="evenodd">
        <g id="desktop_reklamacja_2" transform="translate(-316.000000, -275.000000)" fill="#E8900C" fill-rule="nonzero">
            <g id="info" transform="translate(316.000000, 275.000000)">
                <path d="M15,0 C6.72923077,0 0,6.72876923 0,15 C0,23.2712308 6.72923077,30 15,30 C23.2707692,30 30,23.2712308 30,15 C30,6.72876923 23.2707692,0 15,0 Z M15,28.1538462 C7.74692308,28.1538462 1.84615385,22.2530769 1.84615385,15 C1.84615385,7.74692308 7.74692308,1.84615385 15,1.84615385 C22.2530769,1.84615385 28.1538462,7.74692308 28.1538462,15 C28.1538462,22.2530769 22.2530769,28.1538462 15,28.1538462 Z" id="Shape"></path>
                <circle id="Oval" cx="15.2390769" cy="9.01892308" r="1.54384615"></circle>
                <path d="M14.8324615,13.0809231 C14.3229231,13.0809231 13.9093846,13.4944615 13.9093846,14.004 L13.9093846,21.8501538 C13.9093846,22.3596923 14.3229231,22.7732308 14.8324615,22.7732308 C15.342,22.7732308 15.7555385,22.3596923 15.7555385,21.8501538 L15.7555385,14.004 C15.7555385,13.494 15.342,13.0809231 14.8324615,13.0809231 Z" id="Path"></path>
            </g>
        </g>
    </g>
</svg>