<?xml version="1.0" encoding="UTF-8"?>
<svg width="15px" height="15px" viewBox="0 0 15 15" version="1.1" xmlns="http://www.w3.org/2000/svg" xmlns:xlink="http://www.w3.org/1999/xlink">
    <!-- Generator: sketchtool 53.1 (72631) - https://sketchapp.com -->
    <title>658A480C-30E7-4DC0-A262-C95EF7A02F9F</title>
    <desc>Created with sketchtool.</desc>
    <g id="Desktop" stroke="none" stroke-width="1" fill="none" fill-rule="evenodd">
        <g id="desktop_reklamacja_1_zalaczniki" transform="translate(-459.000000, -513.000000)" fill="#636363" fill-rule="nonzero">
            <g id="remove" transform="translate(459.000000, 513.000000)">
                <path d="M7.5,0 C3.35781097,0 0,3.35781097 0,7.5 C0,11.642189 3.35781097,15 7.5,15 C11.642189,15 15,11.642189 15,7.5 C14.995079,3.35987092 11.6401291,0.0049209668 7.5,0 Z M7.5,14.0625 C3.87565611,14.0625 0.9375,11.1243439 0.9375,7.5 C0.9375,3.87565611 3.87565611,0.9375 7.5,0.9375 C11.1243439,0.9375 14.0625,3.87565611 14.0625,7.5 C14.058609,11.1227417 11.1227417,14.058609 7.5,14.0625 Z" id="Shape"></path>
                <path d="M11.1459732,3.85402679 C10.9628677,3.67103578 10.6661224,3.67103578 10.4831314,3.85402679 L7.5,6.8371582 L4.51686858,3.85402679 C4.33696746,3.66783141 4.04022217,3.66268157 3.85402679,3.8425827 C3.66783141,4.02236938 3.66268157,4.31911468 3.8425827,4.50531006 C3.84635924,4.50920104 3.85013581,4.51309204 3.85402679,4.51686858 L6.8371582,7.5 L3.85402679,10.4831314 C3.66783141,10.6629181 3.66268157,10.9596634 3.8425827,11.1459732 C4.02236938,11.3321686 4.31911468,11.3373184 4.50531006,11.1574173 C4.50920104,11.1536408 4.51309204,11.1498642 4.51686858,11.1459732 L7.5,8.1628418 L10.4831314,11.1459732 C10.6693268,11.3257599 10.9660721,11.32061 11.1458588,11.1344147 C11.3212967,10.9527969 11.3212967,10.6647492 11.1458588,10.4831314 L8.1628418,7.5 L11.1459732,4.51686858 C11.3289642,4.33387758 11.3289642,4.03713226 11.1459732,3.85402679 L11.1459732,3.85402679 Z" id="Path"></path>
            </g>
        </g>
    </g>
</svg>