<?xml version="1.0" encoding="utf-8"?>
<!-- Generator: Adobe Illustrator 17.0.0, SVG Export Plug-In . SVG Version: 6.00 Build 0)  -->
<!DOCTYPE svg PUBLIC "-//W3C//DTD SVG 1.1//EN" "http://www.w3.org/Graphics/SVG/1.1/DTD/svg11.dtd">
<svg version="1.1" id="Warstwa_1" xmlns="http://www.w3.org/2000/svg" xmlns:xlink="http://www.w3.org/1999/xlink" x="0px" y="0px"
	 width="30px" height="30px" viewBox="0 0 30 30" enable-background="new 0 0 30 30" xml:space="preserve">
<title>B0A1B2D4-9B18-4731-A0CC-BBB5459CE34E</title>
<desc>Created with sketchtool.</desc>
<g>
	<path id="Shape" fill="#69E782" d="M15,0C6.729,0,0,6.729,0,15s6.729,15,15,15s15-6.729,15-15S23.271,0,15,0z M15,28.154
		C7.747,28.154,1.846,22.253,1.846,15S7.747,1.846,15,1.846S28.154,7.747,28.154,15S22.253,28.154,15,28.154z"/>
	<g id="Homepage">
		<g id="homepage_switch_lang" transform="translate(-1293.000000, -76.000000)">
			<g id="dropdown" transform="translate(1212.000000, 52.000000)">
				<g id="Group-2" transform="translate(17.000000, 18.000000)">
					<g id="tick" transform="translate(64.000000, 6.000000)">
						<path id="Path_1_" fill="#69E782" d="M22.766,9.766c-0.312-0.312-0.819-0.312-1.131,0L12.05,19.35l-3.684-3.684
							c-0.312-0.312-0.819-0.312-1.131,0c-0.312,0.312-0.312,0.819,0,1.131l4.25,4.25c0.312,0.312,0.819,0.312,1.131,0l10.15-10.15
							C23.078,10.585,23.078,10.078,22.766,9.766z"/>
					</g>
				</g>
			</g>
		</g>
	</g>
</g>
</svg>
